<svg xmlns="http://www.w3.org/2000/svg" width="121" height="35" viewBox="0 0 121 35" fill="none"><g clip-path="url(#clip0_4824_10790)"><path d="M28.3351 0.574005H0V28.5375H28.3351V0.574005ZM27.0443 9.35703V19.7447C26.4446 17.942 25.6656 16.2022 24.7187 14.5508C25.6656 12.8995 26.4446 11.1597 27.0443 9.35703ZM19.4328 27.272H8.90401C10.7316 26.6814 12.4951 25.9128 14.1684 24.9776C15.8414 25.9135 17.6049 26.6821 19.4328 27.272ZM14.1684 4.13548C12.4949 3.20111 10.7314 2.43308 8.90401 1.8427H19.4328C17.6052 2.43277 15.8418 3.20082 14.1684 4.13548ZM23.8724 13.1859C21.7148 9.90279 18.8796 7.10557 15.5519 4.97693C19.0631 3.15221 22.9446 2.12797 26.9104 1.97968C26.7601 5.89227 25.7219 9.72174 23.8724 13.1859ZM23.0724 14.5508C20.8558 18.1368 17.8031 21.1486 14.1684 23.3355C10.5328 21.1492 7.47944 18.1373 5.26274 14.5508C7.47995 10.9648 10.5332 7.95302 14.1684 5.7662C17.8031 7.95307 20.8558 10.9649 23.0724 14.5508ZM4.46275 13.1859C2.61324 9.72174 1.57508 5.89227 1.42477 1.97968C5.39052 2.12797 9.27202 3.15221 12.7833 4.97693C9.45626 7.10645 6.6212 9.9035 4.46275 13.1859ZM4.46275 15.9174C6.62002 19.203 9.45519 22.0029 12.7833 24.1346C9.27138 25.9565 5.3899 26.978 1.42477 27.1236C1.57508 23.2111 2.61324 19.3816 4.46275 15.9174ZM23.8724 15.9174C25.7219 19.3816 26.7601 23.2111 26.9104 27.1236C22.9454 26.9772 19.0641 25.9558 15.5519 24.1346C18.8803 22.0034 21.7156 19.2033 23.8724 15.9174ZM3.59169 14.5508C2.64379 16.2017 1.86476 17.9416 1.2661 19.7447V9.35703C1.86577 11.1597 2.64477 12.8995 3.59169 14.5508Z" fill="#003CDC"></path><path d="M36.1768 28.5375H43.4709V0.574005H36.1768V28.5375Z" fill="#003CDC"></path><path d="M113.701 28.5375H121V6.46415C121 0.782742 118.827 0 116.479 0C114.721 0 113.222 0.652285 111.635 2.11993L110.539 3.1326V0.574011H103.938V28.5375H111.238V8.30033C111.238 7.01533 112.182 6.91422 112.47 6.91422C112.757 6.91422 113.703 7.01533 113.703 8.30033L113.701 28.5375Z" fill="#003CDC"></path><path d="M99.7677 2.9255C98.4652 0.929507 96.4157 0 93.3182 0C90.1331 0 88.0075 0.945814 86.629 2.97768C85.2142 5.06336 84.5547 8.28565 84.5547 13.1175V15.981C84.5547 20.8731 85.1795 24.1182 86.5216 26.1729C87.8241 28.1689 89.872 29.0984 92.9678 29.0984C96.1529 29.0984 98.2801 28.151 99.6586 26.1191C101.075 24.0335 101.735 20.8128 101.735 15.981V13.1175C101.735 8.21879 101.108 4.9802 99.7677 2.9255ZM94.1579 21.4422C94.1579 22.4207 93.6058 22.631 93.143 22.631C92.6802 22.631 92.1281 22.4256 92.1281 21.4422V7.66435C92.1281 6.68592 92.6802 6.47393 93.143 6.47393C93.6058 6.47393 94.1579 6.68103 94.1579 7.66435V21.4422Z" fill="#003CDC"></path><path d="M58.0981 0C56.4716 0 55.0088 0.671854 53.4965 2.11993L52.3957 3.17337V0.574011H45.7842V35H53.0899V26.6344L54.2138 27.8134C54.6007 28.2347 55.0757 28.5682 55.6059 28.7909C56.136 29.0136 56.7089 29.1202 57.2848 29.1033C61.0187 29.1033 62.9046 25.6544 62.9046 18.8527V10.2507C62.9112 1.06323 60.1641 0 58.0981 0ZM55.0717 21.4423C55.0717 22.4207 54.5196 22.631 54.0568 22.631C53.594 22.631 53.0419 22.4256 53.0419 21.4423V7.66435C53.0419 6.68592 53.594 6.47393 54.0568 6.47393C54.5196 6.47393 55.0717 6.68103 55.0717 7.66435V21.4423Z" fill="#003CDC"></path><path d="M77.5377 0C75.9113 0 74.4485 0.671854 72.9361 2.11993L71.832 3.17826V0.569119H65.2305V35H72.5295V26.6344L73.6551 27.8134C74.0421 28.2347 74.517 28.5682 75.0472 28.7909C75.5774 29.0136 76.1502 29.1202 76.7262 29.1033C80.4584 29.1033 82.3459 25.6544 82.3459 18.8527V10.2507C82.3509 1.06323 79.6038 0 77.5377 0ZM74.5113 21.4423C74.5113 22.4207 73.9593 22.631 73.4965 22.631C73.0337 22.631 72.4816 22.4256 72.4816 21.4423V7.66435C72.4816 6.68592 73.0337 6.47393 73.4965 6.47393C73.9593 6.47393 74.5113 6.68592 74.5113 7.66435V21.4423Z" fill="#003CDC"></path></g><defs><clipPath id="clip0_4824_10790"><rect width="121" height="35" fill="white"></rect></clipPath></defs></svg>