<svg width="209" height="40" viewBox="0 0 209 40" fill="none" xmlns="http://www.w3.org/2000/svg">
<g id="Layer_1" clip-path="url(#clip0_1775_14616)">
<g id="Group 1523">
<path id="Vector" d="M62.9675 22.0112C62.9675 26.3404 60.9003 28.0287 56.7437 28.0287C52.5871 28.0287 50.6533 25.808 50.6533 22.3825V21.0655H55.2545V21.9692C55.2545 23.1741 55.2545 24.2949 56.6252 24.2949C57.9959 24.2949 57.8551 22.7818 57.8551 22.0742V11.9727H62.9675V22.0112Z" fill="white"/>
<path id="Vector_2" d="M76.8153 25.1075C76.8153 25.9621 76.8598 26.9289 77.371 27.6574H72.681C72.5624 27.3492 72.4957 26.8868 72.5179 26.5786H72.4735C71.4955 27.6294 70.0803 27.9376 68.591 27.9376C66.2645 27.9376 64.3381 26.8798 64.3381 24.491C64.3381 20.8903 68.7985 21.0234 71.1472 20.6031C71.777 20.491 72.3994 20.3159 72.3994 19.5944C72.3994 18.8238 71.6362 18.5436 70.8879 18.5436C69.4727 18.5436 69.1912 19.2231 69.169 19.7065H64.8938C65.0346 16.4981 68.2428 15.9727 71.0954 15.9727C76.8598 15.9727 76.8079 18.2354 76.8079 20.435V25.1145L76.8153 25.1075ZM72.3994 22.5366C71.8437 22.8028 71.2139 22.9569 70.5841 23.083C69.5617 23.3002 69.0282 23.5453 69.0282 24.3159C69.0282 24.8413 69.6357 25.3667 70.4656 25.3667C71.5103 25.3667 72.3253 24.7713 72.392 23.5874V22.5366H72.3994Z" fill="white"/>
<path id="Vector_3" d="M79.2381 16.2521H83.6763V17.7652H83.7207C84.6469 16.4482 85.9954 15.9648 87.6699 15.9648C88.9739 15.9648 90.3668 16.6023 90.9225 17.7442C91.1077 17.6111 92.0339 15.9648 95.0346 15.9648C98.0354 15.9648 99.169 17.9824 99.169 19.8317V27.6496H94.5679V21.478C94.5679 20.3992 94.4493 19.4324 93.0564 19.4324C91.8931 19.4324 91.5004 20.2871 91.5004 21.478V27.6496H86.8993V21.478C86.8993 20.3992 86.7807 19.4324 85.3878 19.4324C84.2245 19.4324 83.8319 20.2871 83.8319 21.478V27.6496H79.2307V16.2521H79.2381Z" fill="white"/>
<path id="Vector_4" d="M105.208 22.9359C105.326 24.2319 106.112 25.1565 107.556 25.1565C108.297 25.1565 109.112 24.8903 109.483 24.3439H113.78C112.854 26.8028 110.32 27.9446 107.579 27.9446C103.726 27.9446 100.821 25.794 100.821 21.9902C100.821 18.6697 103.377 15.9727 107.186 15.9727C111.972 15.9727 114.039 18.5016 114.039 22.9359H105.208ZM109.623 20.6732C109.623 19.6224 108.786 18.7607 107.601 18.7607C106.23 18.7607 105.437 19.4403 105.23 20.6732H109.623Z" fill="white"/>
<path id="Vector_5" d="M122.634 19.5742C122.612 19.2029 122.404 18.9157 122.101 18.7195C121.819 18.5024 121.449 18.3903 121.078 18.3903C120.426 18.3903 119.685 18.5234 119.685 19.2659C119.685 19.5952 119.967 19.7493 120.219 19.8614C120.982 20.1696 122.73 20.2537 124.257 20.737C125.79 21.1994 127.139 22.054 127.139 23.9244C127.139 27.0838 123.931 27.9454 121.004 27.9454C118.077 27.9454 115.054 26.8666 114.988 23.9244H119.381C119.404 24.3167 119.589 24.646 119.937 24.9332C120.167 25.1293 120.611 25.2624 121.167 25.2624C121.775 25.2624 122.723 25.0453 122.723 24.3868C122.723 23.7283 122.33 23.5321 120.189 23.1819C116.685 22.6074 115.262 21.5567 115.262 19.6022C115.262 16.723 118.537 15.9805 120.952 15.9805C123.553 15.9805 126.687 16.66 126.806 19.5812H122.627L122.634 19.5742Z" fill="white"/>
<path id="Vector_6" d="M128.762 11.9727H133.874V17.4227H138.66V11.9727H143.773V27.6574H138.66V21.4438H133.874V27.6574H128.762V11.9727Z" fill="white"/>
<path id="Vector_7" d="M157.621 25.1075C157.621 25.9621 157.665 26.9289 158.176 27.6574H153.486C153.368 27.3492 153.301 26.8868 153.323 26.5786H153.279C152.301 27.6294 150.886 27.9376 149.396 27.9376C147.077 27.9376 145.144 26.8798 145.144 24.491C145.144 20.8903 149.604 21.0234 151.953 20.6031C152.582 20.491 153.205 20.3159 153.205 19.5944C153.205 18.8238 152.442 18.5436 151.693 18.5436C150.278 18.5436 149.997 19.2231 149.974 19.7065H145.699C145.84 16.4981 149.048 15.9727 151.901 15.9727C157.665 15.9727 157.613 18.2354 157.613 20.435V25.1145L157.621 25.1075ZM153.205 22.5366C152.649 22.8028 152.019 22.9569 151.39 23.083C150.367 23.3002 149.834 23.5453 149.834 24.3159C149.834 24.8413 150.434 25.3667 151.271 25.3667C152.316 25.3667 153.131 24.7713 153.197 23.5874V22.5366H153.205Z" fill="white"/>
<path id="Vector_8" d="M159.829 16.2521H164.245V18.0734H164.289C165.03 16.7144 166.008 15.9648 167.682 15.9648C168.149 15.9648 168.586 16.0279 169.031 16.14V19.9859C168.564 19.8317 168.149 19.6986 167.223 19.6986C165.408 19.6986 164.437 20.7074 164.437 23.1452V27.6496H159.836V16.2521H159.829Z" fill="white"/>
<path id="Vector_9" d="M182.568 27.6574H178.13V26.4035H178.085C177.507 27.125 176.811 27.9446 174.551 27.9446C171.135 27.9446 169.483 24.7572 169.483 21.9061C169.483 19.2301 170.572 15.9727 174.618 15.9727C175.988 15.9727 177.218 16.5471 177.915 17.5068H177.959V11.9727H182.56V27.6574H182.568ZM176.107 19.132C174.455 19.132 174.084 20.6031 174.084 21.9411C174.084 23.2791 174.455 24.7713 176.107 24.7713C177.759 24.7713 178.13 23.3002 178.13 21.9411C178.13 20.5821 177.759 19.132 176.107 19.132Z" fill="white"/>
<path id="Vector_10" d="M189.191 14.1505V15.0191H184.59V11.9648H189.191V14.1435V14.1505ZM184.59 16.2521H189.191V27.6496H184.59V16.2521Z" fill="white"/>
<path id="Vector_11" d="M195.23 22.9359C195.349 24.2319 196.134 25.1565 197.579 25.1565C198.32 25.1565 199.135 24.8903 199.505 24.3439H203.803C202.876 26.8028 200.342 27.9446 197.601 27.9446C193.748 27.9446 190.844 25.794 190.844 21.9902C190.844 18.6697 193.4 15.9727 197.208 15.9727C201.995 15.9727 204.062 18.5016 204.062 22.9359H195.237H195.23ZM199.646 20.6732C199.646 19.6224 198.809 18.7607 197.623 18.7607C196.253 18.7607 195.46 19.4403 195.252 20.6732H199.646Z" fill="white"/>
<path id="Vector_12" d="M204.729 10.922H204.054V10.6348H205.84V10.922H205.181V12.7714H204.729V10.922Z" fill="white"/>
<path id="Vector_13" d="M206.099 10.6348H206.803L207.3 12.218H207.307L207.796 10.6348H208.485V12.7714H208.055V10.992H208.048L207.478 12.7714H207.1L206.529 10.992H206.522V12.7714H206.092V10.6348H206.099Z" fill="white"/>
</g>
<path id="Vector_14" fill-rule="evenodd" clip-rule="evenodd" d="M21.6534 0C9.96903 0 0.5 8.95271 0.5 20C0.5 31.0473 9.96903 40 21.6534 40C33.3378 40 42.8068 31.0473 42.8068 20C42.8068 8.95271 33.3304 0 21.6534 0ZM20.1345 36.3783L23.0612 27.8529H26.9733L24.0762 36.2802C23.2835 36.3853 22.4684 36.4413 21.646 36.4413C21.1348 36.4413 20.6235 36.4203 20.1271 36.3783H20.1345ZM29.3146 34.7601L36.0941 15.0333H31.3818L28.4329 23.6217H24.5134L27.4623 15.0333H22.75L15.726 35.4606C9.03546 33.1699 4.24908 27.1103 4.24908 19.993C4.24908 11.6427 10.8285 4.74956 19.3491 3.69177L13.8589 19.6708C13.6366 20.3152 12.9105 20.6655 12.2288 20.4553C11.5472 20.2452 11.1767 19.5517 11.399 18.9142L12.7327 15.0333H8.02039L7.13869 17.6042C6.15326 20.4764 7.81293 23.5517 10.8433 24.4834C13.8737 25.4151 17.1338 23.8459 18.1192 20.9807L24.0614 3.71278C32.5228 4.82662 39.0429 11.6918 39.0429 20C39.0429 26.4799 35.0716 32.0841 29.3072 34.7671L29.3146 34.7601Z" fill="white"/>
</g>
<defs>
<clipPath id="clip0_1775_14616">
<rect width="208" height="40" fill="white" transform="translate(0.5)"/>
</clipPath>
</defs>
</svg>
