<svg width="129" height="60" viewBox="0 0 129 60" fill="none" xmlns="http://www.w3.org/2000/svg">
<path d="M81.9115 53.5454C83.1198 53.0988 83.8991 51.9868 83.8991 50.7085V49.7278C83.8991 48.0554 82.5419 46.6982 80.8695 46.6982H71.5445C71.0191 46.6982 70.5901 47.1273 70.5901 47.6526V56.9777C70.5901 57.5031 71.0191 57.9321 71.5445 57.9321H71.9122C72.4376 57.9321 72.8666 57.5031 72.8666 56.9777V54.1758C72.8666 53.9569 73.0417 53.7818 73.2606 53.7818H78.9783C79.1884 53.7818 79.3898 53.8956 79.4949 54.0795L81.4825 57.5468C81.6663 57.8533 81.9816 58.0284 82.3055 58.0284C82.4806 58.0284 82.6558 57.9846 82.8134 57.8796L82.8659 57.827C83.0848 57.6869 83.2424 57.4855 83.3037 57.2404C83.365 56.9952 83.3212 56.7325 83.1899 56.5049L81.7364 54.0094C81.6926 53.9306 81.6838 53.8343 81.7101 53.7468C81.7451 53.6504 81.8239 53.5804 81.9115 53.5454ZM81.5875 50.8923C81.5875 51.5403 81.0622 51.838 80.5456 51.838H73.2519C73.0593 51.838 72.9017 51.6804 72.9017 51.4877V49.0448C72.9017 48.8522 73.0593 48.6946 73.2519 48.6946H80.5018C81.0972 48.6946 81.5875 49.1762 81.5875 49.7803V50.8923Z" fill="black"/>
<path d="M111.787 46.6982H101.77C101.367 46.6982 101.017 47.0485 101.017 47.4512V57.1878C101.017 57.5906 101.367 57.9409 101.77 57.9409H111.787C113.459 57.9409 114.816 56.5837 114.816 54.9113V49.7366C114.816 48.0642 113.459 46.6982 111.787 46.6982ZM112.548 49.7278V54.9025C112.548 55.498 112.067 55.9883 111.463 55.9883H103.6C103.433 55.9883 103.293 55.8482 103.293 55.6818V48.9573C103.293 48.7909 103.433 48.6508 103.6 48.6508H111.463C112.058 48.6508 112.548 49.1324 112.548 49.7278Z" fill="black"/>
<path d="M99.7825 56.5752L99.4673 56.0761H99.4848L93.5658 47.2939C93.2243 46.786 92.7602 46.5059 92.2699 46.5059C92.2611 46.5059 92.2436 46.5059 92.2349 46.5059C91.7358 46.5059 91.2717 46.786 90.9302 47.2939L85.1601 55.8572L85.02 56.0761H85.0287L84.7135 56.5752C84.5734 56.7853 84.5209 57.0305 84.5909 57.2669C84.6522 57.5033 84.8186 57.6959 85.0463 57.8098L85.2739 57.9236C85.738 58.1512 86.3509 57.9849 86.6398 57.5646L88.4348 54.859H96.0787L97.8737 57.5646C98.0751 57.8623 98.4253 58.0287 98.7843 58.0287C98.9419 58.0287 99.0995 57.9936 99.2396 57.9236L99.4673 57.8098C99.6949 57.6959 99.8613 57.5033 99.9226 57.2669C99.9751 57.0305 99.9226 56.7853 99.7825 56.5752ZM94.4501 52.7663C94.3888 52.8802 94.275 52.9502 94.1437 52.9502H90.3436C90.2123 52.9502 90.0984 52.8802 90.0371 52.7663C89.9758 52.6525 89.9846 52.5212 90.0547 52.4161L92.0335 49.4741L92.0948 49.3778C92.121 49.334 92.1648 49.3165 92.2174 49.3165H92.2261H92.2349H92.2436C92.2962 49.3165 92.3487 49.334 92.375 49.3778L94.4151 52.4074C94.5027 52.5212 94.5114 52.6525 94.4501 52.7663Z" fill="black"/>
<path d="M119.702 48.6685H128.161C128.572 48.6685 128.914 48.3358 128.914 47.9155V47.4952C128.914 47.0837 128.581 46.7422 128.161 46.7422H119.378C117.706 46.7422 116.34 48.1081 116.34 49.7805V54.9027C116.34 56.5751 117.706 57.941 119.378 57.941H128.161C128.572 57.941 128.905 57.6083 128.905 57.1968V56.7765C128.905 56.365 128.572 56.0235 128.152 56.0235H119.702C119.089 56.0235 118.59 55.5244 118.59 54.9115V53.1865C118.59 53.0027 118.739 52.8538 118.923 52.8538H126.9C127.311 52.8538 127.653 52.5211 127.653 52.1008V51.6805C127.653 51.269 127.32 50.9275 126.9 50.9275H118.923C118.739 50.9275 118.59 50.7787 118.59 50.5948V49.7542C118.608 49.1588 119.098 48.6685 119.702 48.6685Z" fill="black"/>
<path d="M68.3134 46.752H57.5261C56.9832 46.752 56.6768 47.0497 56.6768 47.5925V47.8114C56.6768 48.3718 56.9657 48.6607 57.5261 48.6607H61.2211C61.5188 48.6607 61.764 48.9059 61.764 49.2036V57.0839C61.764 57.6268 62.0617 57.9245 62.6045 57.9245H63.1999C63.7428 57.9245 64.0405 57.6268 64.0405 57.0839V49.2036C64.0405 48.9059 64.2857 48.6607 64.5834 48.6607H68.3134C68.8563 48.6607 69.154 48.3543 69.154 47.8114V47.5925C69.154 47.0497 68.8563 46.752 68.3134 46.752Z" fill="black"/>
<path d="M28.2724 46.7422H27.9485C27.4056 46.7422 26.9678 47.18 26.9678 47.7229V54.535C26.9678 55.358 26.2936 56.0322 25.4705 56.0322H19.2538C18.4308 56.0322 17.7566 55.358 17.7566 54.535V54.4299C17.7566 54.3161 17.7653 53.5368 17.7653 47.7141C17.7653 47.18 17.3363 46.7509 16.8022 46.7509H16.4694C15.9266 46.7509 15.4888 47.1887 15.4888 47.7316V54.9202C15.4888 56.5926 16.8547 57.9585 18.5271 57.9585H26.206C27.8697 57.9585 29.2268 56.6014 29.2268 54.9377C29.2268 54.9377 29.2356 54.3598 29.2356 54.3161V47.7316C29.2443 47.18 28.8065 46.7422 28.2724 46.7422Z" fill="#3DA542"/>
<path d="M34.3227 48.6685H42.781C43.1925 48.6685 43.534 48.3358 43.534 47.9155V47.4952C43.534 47.0837 43.2012 46.7422 42.781 46.7422H33.9988C32.3264 46.7422 30.9604 48.1081 30.9604 49.7805V54.9027C30.9604 56.5751 32.3264 57.941 33.9988 57.941H42.781C43.1925 57.941 43.5252 57.6083 43.5252 57.1968V56.7765C43.5252 56.365 43.1925 56.0235 42.7722 56.0235H34.3227C33.7098 56.0235 33.2107 55.5244 33.2107 54.9115V53.1865C33.2107 53.0027 33.3596 52.8538 33.5434 52.8538H41.5201C41.9316 52.8538 42.2731 52.5211 42.2731 52.1008V51.6805C42.2731 51.269 41.9404 50.9275 41.5201 50.9275H33.5434C33.3596 50.9275 33.2107 50.7787 33.2107 50.5948V49.7542C33.2282 49.1588 33.7186 48.6685 34.3227 48.6685Z" fill="#3DA542"/>
<path d="M54.4262 50.9362H48.1657C47.5528 50.9362 47.0537 50.4372 47.0537 49.8242V49.7717C47.0537 49.1588 47.5528 48.6597 48.1657 48.6597H54.4699C54.8815 48.6597 55.223 48.327 55.223 47.9067V47.4864C55.223 47.0749 54.8902 46.7334 54.4699 46.7334H47.8242C46.1518 46.7334 44.7859 48.0993 44.7859 49.7717V49.8155C44.7859 51.4879 46.1518 52.8538 47.8242 52.8538H47.9468V52.8625L48.0956 52.8538C48.1131 52.8538 48.1219 52.8538 48.1306 52.8538H54.0934C54.6976 52.8538 55.1879 53.3529 55.1879 53.9483V54.9202C55.1879 55.5331 54.6888 56.0322 54.0759 56.0322H52.9727C52.9377 56.0234 52.9114 56.0322 52.8851 56.0322C52.8764 56.0322 52.8676 56.0322 52.8589 56.0322H45.5389C45.1274 56.0322 44.7859 56.3649 44.7859 56.7852V57.1967C44.7859 57.6083 45.1186 57.9497 45.5389 57.9497H47.9468V57.9585H54.4087C56.081 57.9585 57.447 56.5926 57.447 54.9202V53.957C57.447 52.2934 56.0898 50.9362 54.4262 50.9362Z" fill="#3DA542"/>
<path d="M13.7818 54.9115V49.7805C13.7818 48.1081 12.4159 46.7422 10.7435 46.7422H3.03831C1.36593 46.7422 0 48.1081 0 49.7805V54.9027C0 56.5751 1.36593 57.941 3.03831 57.941H10.2882C10.4108 57.941 10.5159 58.0023 10.5772 58.1074C10.8311 58.5627 11.3827 59.5171 11.3827 59.5171C11.5578 59.8235 11.8818 59.9987 12.2233 59.9987C12.3896 59.9987 12.556 59.9549 12.7049 59.8673L13.0026 59.6922C13.4579 59.4295 13.6155 58.8341 13.3528 58.3788L12.7661 57.3631C12.7224 57.2931 12.7399 57.1968 12.8012 57.1355C13.4228 56.5663 13.7818 55.752 13.7818 54.9115ZM11.514 50.0607V54.6225C11.514 55.393 10.8836 56.0147 10.1219 56.0147H3.65998C2.88946 56.0147 2.26779 55.393 2.26779 54.6225V50.0607C2.26779 49.2902 2.88946 48.6685 3.65998 48.6685H10.1219C10.8924 48.6597 11.514 49.2902 11.514 50.0607Z" fill="#3DA542"/>
<path d="M57.1155 20.1518C60.5391 13.8475 65.0484 9.07552 69.1461 6.86027L65.0308 0.380883C64.7069 -0.126961 64.1903 -0.126961 63.8838 0.380883L41.3636 35.8774C41.0396 36.3853 41.311 36.5341 41.8977 36.5341H52.6412C52.4748 31.946 53.8495 26.1321 57.1155 20.1518Z" fill="#3EA448"/>
<path d="M70.5471 10.8962C68.3406 9.68792 63.5774 14.1622 59.9087 20.8955C56.2487 27.6201 55.0667 34.0557 57.2731 35.2727C58.8755 36.1396 61.5723 33.8543 64.453 30.098V21.4997C64.453 20.6066 65.0134 20.1162 65.4337 20.8955L67.8328 25.4311C67.8678 25.3785 67.8853 25.3348 67.9204 25.2822C71.5891 18.5489 72.7624 12.1133 70.5471 10.8962Z" fill="#3EA448"/>
<path d="M87.5687 35.8774L78.48 21.5439C77.692 24.2408 76.5274 27.0952 74.9864 29.9234C74.1808 31.3944 73.3228 32.7778 72.4209 34.0824L74.1371 36.5341H87.0345C87.6212 36.5341 87.8926 36.3852 87.5687 35.8774Z" fill="#3EA448"/>
</svg>
