<svg id="Layer_1" data-name="Layer 1" xmlns="http://www.w3.org/2000/svg" width="418.36" height="80"><defs><style>.cls-1{fill:#bf2026}</style></defs><path class="cls-1" d="M269.85 1.43h9.24v32.92l12.8-15.12h11.07l-14.65 17.11 15.97 22.47h-11.06l-13.96-19.96h-.17v19.96h-9.24V1.43z"/><path class="cls-1" d="M303.45 39c0-13 6.08-20.72 17.48-20.72s17.45 7.77 17.45 20.72-6.07 20.7-17.45 20.7S303.45 52 303.45 39m17.48 14.2c6.63 0 7.63-6.8 7.63-14.2s-1-14.21-7.63-14.21-7.67 6.8-7.67 14.21 1 14.2 7.67 14.2M352.65 24h.16A11.54 11.54 0 0 1 363 18.3c9.49 0 13.64 8.07 13.64 20.72 0 11-3.83 20.7-16.72 20.7-10.4 0-16.54-5.91-16.54-17.72V1.43h9.23V24ZM360 53.22c5.92 0 6.91-7.72 6.91-14.2 0-7.16-.74-14.81-6.91-14.81-5.57 0-7.31 8.16-7.31 14.81 0 9.89 1.49 14.2 7.31 14.2M381.34 39c0-13 6.07-20.72 17.46-20.72s17.46 7.77 17.46 20.72-6.07 20.7-17.46 20.7S381.34 52 381.34 39m17.46 14.2c6.65 0 7.65-6.8 7.65-14.2s-1-14.21-7.65-14.21-7.65 6.8-7.65 14.21 1 14.2 7.65 14.2M204.74 66.61H51.19l12.23 12.24 141.32-12.24zM56.5 49.8c-5.3 0-9.19-5.23-9.19-11.82s3.89-11.82 9.19-11.82 9 5.22 9 11.82-3.74 11.82-9 11.82Zm8.91-32.66V19a15.48 15.48 0 0 0-8.91-2.87c-10.76 0-18.93 9.81-18.93 21.86s8.17 21.84 18.93 21.84A15.48 15.48 0 0 0 65.41 57v1.85h9.46V17.14ZM141.16 17.14v24.48c0 4.59-3.15 8.47-7.74 8.47s-7.75-3.88-7.75-8.47V17.14h-9.46v24.48c0 10 6.87 18.21 16.92 18.21a14.48 14.48 0 0 0 8-2.57v1.55h9.46V17.14ZM229.28 58.81V34.33c0-4.59 3.15-8.47 7.75-8.47s7.75 3.88 7.75 8.47v24.48h9.45V34.33c0-10-6.87-18.21-16.91-18.21a14.54 14.54 0 0 0-8 2.57v-1.55h-9.46v41.67Z"/><path class="cls-1" d="M10.32 16.64h6.45a8.07 8.07 0 1 1 0 16.13h-6.45V16.64Zm0 42.17V42.67h7l12.1 16.14H41.8L27.17 39.33a17.94 17.94 0 0 0-10.4-32.57H.43v52.05ZM176.11 49a5.67 5.67 0 0 1-3.17 1c-1.54 0-4.45-1.18-4.45-5.11V27h8.08v-9.86h-8.08V6.76H159v10.38h-5V27h5v18c0 9.3 7 14.86 14.06 14.86a19.38 19.38 0 0 0 9.25-2.63l-6.2-8.23ZM98.38 36.67l16.22-19.53h-13.26L90 31.66V3.32h-9.74v55.49H90V41.69l13.94 17.12h13.25L98.38 36.67z"/><path class="cls-1" d="M206.21 32.6h-17c2-9.76 15.19-10.32 17 0ZM198 16.08c-10.94 0-18.8 9.62-18.8 21.9 0 12.9 9.86 21.89 19.74 21.89 5 0 11.38-1.71 16.75-9.33l-8.35-4.82c-6.46 9.52-17.23 4.69-18.47-4.83h27.24c2.33-15-7.35-24.81-18.11-24.81Z"/></svg>